<svg xmlns="http://www.w3.org/2000/svg" width="104" height="19" fill="none"><path fill="#FFC633" d="m9.245.255 2.62 5.64 6.172.748-4.554 4.234 1.196 6.102-5.434-3.023-5.434 3.023 1.196-6.102L.452 6.643l6.174-.748L9.245.255ZM33.047.255l2.619 5.64 6.173.748-4.554 4.234 1.196 6.102-5.434-3.023-5.434 3.023 1.196-6.102-4.555-4.234 6.174-.748 2.619-5.64ZM56.849.255l2.619 5.64 6.173.748-4.554 4.234 1.196 6.102-5.434-3.023-5.434 3.023 1.196-6.102-4.555-4.234 6.174-.748 2.619-5.64ZM80.65.255l2.62 5.64 6.173.748-4.554 4.234 1.196 6.102-5.434-3.023-5.434 3.023 1.196-6.102-4.555-4.234 6.173-.748 2.62-5.64ZM98.566 16.98 104 13.955V.255l-2.619 5.64-6.174.748 4.555 4.234-1.196 6.102Z"/></svg>