<svg xmlns="http://www.w3.org/2000/svg" width="23" height="22" fill="none"><path fill="#000" d="M9.375 19.25a1.875 1.875 0 1 1-3.75 0 1.875 1.875 0 0 1 3.75 0Zm7.875-1.875a1.875 1.875 0 1 0 0 3.75 1.875 1.875 0 0 0 0-3.75Zm4.825-11.294-2.558 8.316a2.614 2.614 0 0 1-2.51 1.853H7.775a2.637 2.637 0 0 1-2.525-1.904L2.045 3.125h-.92a1.125 1.125 0 0 1 0-2.25h1.202a1.882 1.882 0 0 1 1.803 1.36l.683 2.39H21a1.125 1.125 0 0 1 1.075 1.456Zm-2.598.794H5.455l1.959 6.853a.375.375 0 0 0 .36.272h9.233a.375.375 0 0 0 .36-.264l2.11-6.861Z"/></svg>